<svg xmlns="http://www.w3.org/2000/svg" xmlns:xlink="http://www.w3.org/1999/xlink" contentStyleType="text/css" data-diagram-type="DESCRIPTION" height="950px" preserveAspectRatio="none" style="width:553px;height:950px;background:#FFFFFF;" version="1.1" viewBox="0 0 553 950" width="553px" zoomAndPan="magnify"><defs/><g><!--cluster STADIO--><g class="cluster" data-entity="STADIO" data-source-line="8" data-uid="ent0003" id="cluster_STADIO"><rect fill="none" height="937" rx="2.5" ry="2.5" style="stroke:#181818;stroke-width:1;" width="240" x="307" y="7"/><text fill="#000000" font-family="'Arial'" font-size="14" font-weight="bold" lengthAdjust="spacing" textLength="52.8896" x="400.5552" y="22.1318">STADIO</text></g><!--entity UC_Login--><g class="entity" data-entity="UC_Login" data-source-line="9" data-uid="ent0004" id="entity_UC_Login"><ellipse cx="426.8466" cy="136.9693" fill="#F1F1F1" rx="60.3466" ry="14.4693" style="stroke:#181818;stroke-width:0.5;"/><text fill="#000000" font-family="'Arial'" font-size="14" lengthAdjust="spacing" textLength="81.7031" x="385.9951" y="141.5186">Iniciar sesi&#243;n</text></g><!--entity UC_Dash--><g class="entity" data-entity="UC_Dash" data-source-line="10" data-uid="ent0005" id="entity_UC_Dash"><ellipse cx="427.0612" cy="57.2122" fill="#F1F1F1" rx="64.0612" ry="15.2122" style="stroke:#181818;stroke-width:0.5;"/><text fill="#000000" font-family="'Arial'" font-size="14" lengthAdjust="spacing" textLength="91.8408" x="381.1408" y="61.7616">Ver dashboard</text></g><!--entity UC_Clientes--><g class="entity" data-entity="UC_Clientes" data-source-line="11" data-uid="ent0006" id="entity_UC_Clientes"><ellipse cx="427.1292" cy="295.1258" fill="#F1F1F1" rx="101.1292" ry="22.6258" style="stroke:#181818;stroke-width:0.5;"/><text fill="#000000" font-family="'Arial'" font-size="14" lengthAdjust="spacing" textLength="178.9922" x="337.6331" y="299.6752">Consultar clientes asignados</text></g><!--entity UC_Ficha--><g class="entity" data-entity="UC_Ficha" data-source-line="12" data-uid="ent0007" id="entity_UC_Ficha"><ellipse cx="426.8617" cy="203.8723" fill="#F1F1F1" rx="74.8617" ry="17.3723" style="stroke:#181818;stroke-width:0.5;"/><text fill="#000000" font-family="'Arial'" font-size="14" lengthAdjust="spacing" textLength="119.0684" x="367.3275" y="208.4217">Ver ficha de cliente</text></g><!--entity UC_CrearR--><g class="entity" data-entity="UC_CrearR" data-source-line="13" data-uid="ent0008" id="entity_UC_CrearR"><ellipse cx="426.7672" cy="472.8835" fill="#F1F1F1" rx="55.2672" ry="14.3835" style="stroke:#181818;stroke-width:0.5;"/><text fill="#000000" font-family="'Arial'" font-size="14" lengthAdjust="spacing" textLength="73.917" x="389.8087" y="477.4328">Crear rutina</text></g><!--entity UC_EditarR--><g class="entity" data-entity="UC_EditarR" data-source-line="14" data-uid="ent0009" id="entity_UC_EditarR"><ellipse cx="426.8741" cy="634.8835" fill="#F1F1F1" rx="56.3741" ry="14.3835" style="stroke:#181818;stroke-width:0.5;"/><text fill="#000000" font-family="'Arial'" font-size="14" lengthAdjust="spacing" textLength="75.4824" x="389.1329" y="639.4328">Editar rutina</text></g><!--entity UC_Asignar--><g class="entity" data-entity="UC_Asignar" data-source-line="15" data-uid="ent0010" id="entity_UC_Asignar"><ellipse cx="426.7934" cy="387.8587" fill="#F1F1F1" rx="84.7934" ry="19.3587" style="stroke:#181818;stroke-width:0.5;"/><text fill="#000000" font-family="'Arial'" font-size="14" lengthAdjust="spacing" textLength="142.4131" x="355.5868" y="392.408">Asignar rutina a cliente</text></g><!--entity UC_Buscar--><g class="entity" data-entity="UC_Buscar" data-source-line="16" data-uid="ent0011" id="entity_UC_Buscar"><ellipse cx="427.2245" cy="554.2449" fill="#F1F1F1" rx="66.7245" ry="15.7449" style="stroke:#181818;stroke-width:0.5;"/><text fill="#000000" font-family="'Arial'" font-size="14" lengthAdjust="spacing" textLength="98.8135" x="377.8178" y="558.7942">Buscar ejercicio</text></g><!--entity UC_AddEx--><g class="entity" data-entity="UC_AddEx" data-source-line="17" data-uid="ent0012" id="entity_UC_AddEx"><ellipse cx="426.974" cy="708.1948" fill="#F1F1F1" rx="103.974" ry="23.1948" style="stroke:#181818;stroke-width:0.5;"/><text fill="#000000" font-family="'Arial'" font-size="14" lengthAdjust="spacing" textLength="185.2129" x="334.3675" y="712.7441">A&#241;adir ejercicio a la biblioteca</text></g><!--entity UC_Clases--><g class="entity" data-entity="UC_Clases" data-source-line="18" data-uid="ent0013" id="entity_UC_Clases"><ellipse cx="427.1711" cy="783.2342" fill="#F1F1F1" rx="71.6711" ry="16.7342" style="stroke:#181818;stroke-width:0.5;"/><text fill="#000000" font-family="'Arial'" font-size="14" lengthAdjust="spacing" textLength="111.2822" x="371.53" y="787.7835">Ver clases del d&#237;a</text></g><!--entity UC_Horario--><g class="entity" data-entity="UC_Horario" data-source-line="19" data-uid="ent0014" id="entity_UC_Horario"><ellipse cx="426.9706" cy="848.8835" fill="#F1F1F1" rx="51.9706" ry="14.3835" style="stroke:#181818;stroke-width:0.5;"/><text fill="#000000" font-family="'Arial'" font-size="14" lengthAdjust="spacing" textLength="69.2549" x="392.3432" y="853.4328">Ver horario</text></g><!--entity UC_Perfil--><g class="entity" data-entity="UC_Perfil" data-source-line="20" data-uid="ent0015" id="entity_UC_Perfil"><ellipse cx="427.0679" cy="912.8835" fill="#F1F1F1" rx="53.0679" ry="14.3835" style="stroke:#181818;stroke-width:0.5;"/><text fill="#000000" font-family="'Arial'" font-size="14" lengthAdjust="spacing" textLength="70.8066" x="391.6645" y="917.4328">Editar perfil</text></g><!--entity Trainer--><g class="entity" data-entity="Trainer" data-source-line="6" data-uid="ent0002" id="entity_Trainer"><ellipse cx="133.1343" cy="502" fill="#F1F1F1" rx="16" ry="16" style="stroke:#181818;stroke-width:0.5;"/><path d="M133.1343,522 C137.1343,522 140.1343,522 144.1343,518 C152.1343,518 160.1343,526 160.1343,534 L160.1343,538 C160.1343,542 156.1343,546 152.1343,546 L114.1343,546 C110.1343,546 106.1343,542 106.1343,538 L106.1343,534 C106.1343,526 114.1343,518 122.1343,518 C126.1343,522 129.1343,522 133.1343,522" fill="#F1F1F1" style="stroke:#181818;stroke-width:0.5;"/><text fill="#000000" font-family="'Arial'" font-size="14" lengthAdjust="spacing" textLength="69.2686" x="98.5" y="559.6318">Entrenador</text></g><g class="entity" data-entity="GMN28" data-source-line="37" data-uid="ent0029" id="entity_GMN28"><path d="M6,395.5 L6,450.3462 A0,0 0 0 0 6,450.3462 L129,450.3462 L133,485.34 L137,450.3462 L260.4224,450.3462 A0,0 0 0 0 260.4224,450.3462 L260.4224,405.5 L250.4224,395.5 L6,395.5 A0,0 0 0 0 6,395.5" fill="#FEFFDD" style="stroke:#181818;stroke-width:0.5;"/><path d="M250.4224,395.5 L250.4224,405.5 L260.4224,405.5 L250.4224,395.5" fill="#FEFFDD" style="stroke:#181818;stroke-width:0.5;"/><text fill="#000000" font-family="'Arial'" font-size="13" lengthAdjust="spacing" textLength="228.3062" x="12" y="412.6938">Sesi&#243;n iniciada con rol ENTRENADOR.</text><text fill="#000000" font-family="'Arial'" font-size="13" lengthAdjust="spacing" textLength="233.4224" x="12" y="427.6426">Solo opera sobre sus clientes asignados</text><text fill="#000000" font-family="'Arial'" font-size="13" lengthAdjust="spacing" textLength="166.1436" x="12" y="442.5913">y sus clases (RF-05, RF-16).</text></g><!--link Trainer to UC_Login--><g class="link" data-entity-1="Trainer" data-entity-2="UC_Login" data-source-line="23" data-uid="lnk16" id="link_Trainer_UC_Login"><path d="M167.57,518.48 C196.83,511.81 237.95,497.54 260,468 C340.16,360.6 209.95,269.15 299,169 C315.85,150.05 336.1738,142.4128 360.4538,138.8428" fill="none" id="Trainer-to-UC_Login" style="stroke:#181818;stroke-width:1;"/><polygon fill="#181818" points="366.39,137.97,356.9039,135.3218,361.4432,138.6974,358.0676,143.2367,366.39,137.97" style="stroke:#181818;stroke-width:1;"/></g><!--link Trainer to UC_Dash--><g class="link" data-entity-1="Trainer" data-entity-2="UC_Dash" data-source-line="24" data-uid="lnk17" id="link_Trainer_UC_Dash"><path d="M167.53,518.73 C196.97,512.2 238.39,498.02 260,468 C307.4,402.15 247.01,167.28 299,105 C317.2,83.19 340.5917,72.7453 366.4017,66.2453" fill="none" id="Trainer-to-UC_Dash" style="stroke:#181818;stroke-width:1;"/><polygon fill="#181818" points="372.22,64.78,362.5157,63.099,367.3714,66.0011,364.4694,70.8568,372.22,64.78" style="stroke:#181818;stroke-width:1;"/></g><!--link Trainer to UC_Clientes--><g class="link" data-entity-1="Trainer" data-entity-2="UC_Clientes" data-source-line="25" data-uid="lnk18" id="link_Trainer_UC_Clientes"><path d="M167.66,517.05 C195.97,509.53 235.62,494.85 260,468 C296.84,427.42 262.1,391.53 299,351 C315.3,333.09 332.7877,322.7939 354.8077,314.2339" fill="none" id="Trainer-to-UC_Clientes" style="stroke:#181818;stroke-width:1;"/><polygon fill="#181818" points="360.4,312.06,350.5622,311.5927,355.7397,313.8716,353.4608,319.0491,360.4,312.06" style="stroke:#181818;stroke-width:1;"/></g><!--link Trainer to UC_Ficha--><g class="link" data-entity-1="Trainer" data-entity-2="UC_Ficha" data-source-line="26" data-uid="lnk19" id="link_Trainer_UC_Ficha"><path d="M167.78,518.08 C196.77,511.16 237.35,496.78 260,468 C319.52,392.38 238.11,329.53 299,255 C315.91,234.3 336.743,223.6639 361.213,216.3239" fill="none" id="Trainer-to-UC_Ficha" style="stroke:#181818;stroke-width:1;"/><polygon fill="#181818" points="366.96,214.6,357.1902,213.3545,362.1708,216.0366,359.4887,221.0172,366.96,214.6" style="stroke:#181818;stroke-width:1;"/></g><!--link Trainer to UC_CrearR--><g class="link" data-entity-1="Trainer" data-entity-2="UC_CrearR" data-source-line="27" data-uid="lnk20" id="link_Trainer_UC_CrearR"><path d="M167.78,518.1 C220.25,508.94 315.4995,492.3022 374.4195,482.0122" fill="none" id="Trainer-to-UC_CrearR" style="stroke:#181818;stroke-width:1;"/><polygon fill="#181818" points="380.33,480.98,370.776,478.588,375.4045,481.8402,372.1523,486.4687,380.33,480.98" style="stroke:#181818;stroke-width:1;"/></g><!--link Trainer to UC_EditarR--><g class="link" data-entity-1="Trainer" data-entity-2="UC_EditarR" data-source-line="28" data-uid="lnk21" id="link_Trainer_UC_EditarR"><path d="M167.8,536.94 C201.14,549.7 253.57,569.74 299,587 C331.5,599.35 363.0965,611.2813 388.7965,620.9813" fill="none" id="Trainer-to-UC_EditarR" style="stroke:#181818;stroke-width:1;"/><polygon fill="#181818" points="394.41,623.1,387.4023,616.1796,389.7321,621.3344,384.5773,623.6643,394.41,623.1" style="stroke:#181818;stroke-width:1;"/></g><!--link Trainer to UC_Asignar--><g class="link" data-entity-1="Trainer" data-entity-2="UC_Asignar" data-source-line="29" data-uid="lnk22" id="link_Trainer_UC_Asignar"><path d="M167.72,511.03 C193.59,500.6 229.84,484.94 260,468 C278.38,457.67 280.5,451.12 299,441 C324.99,426.79 350.0019,416.0689 374.6619,406.5589" fill="none" id="Trainer-to-UC_Asignar" style="stroke:#181818;stroke-width:1;"/><polygon fill="#181818" points="380.26,404.4,370.4235,403.9062,375.5949,406.1991,373.3021,411.3704,380.26,404.4" style="stroke:#181818;stroke-width:1;"/></g><!--link Trainer to UC_Buscar--><g class="link" data-entity-1="Trainer" data-entity-2="UC_Buscar" data-source-line="30" data-uid="lnk23" id="link_Trainer_UC_Buscar"><path d="M167.78,527.47 C216.2,532.44 300.1014,541.0671 359.9914,547.2171" fill="none" id="Trainer-to-UC_Buscar" style="stroke:#181818;stroke-width:1;"/><polygon fill="#181818" points="365.96,547.83,357.4157,542.9316,360.9862,547.3192,356.5985,550.8897,365.96,547.83" style="stroke:#181818;stroke-width:1;"/></g><!--link Trainer to UC_AddEx--><g class="link" data-entity-1="Trainer" data-entity-2="UC_AddEx" data-source-line="31" data-uid="lnk24" id="link_Trainer_UC_AddEx"><path d="M167.79,560.68 C199.08,592.71 248.31,638.43 299,667 C316.66,676.95 331.3743,683.065 350.6043,689.205" fill="none" id="Trainer-to-UC_AddEx" style="stroke:#181818;stroke-width:1;"/><polygon fill="#181818" points="356.32,691.03,348.9631,684.482,351.5569,689.5092,346.5298,692.103,356.32,691.03" style="stroke:#181818;stroke-width:1;"/></g><!--link Trainer to UC_Clases--><g class="link" data-entity-1="Trainer" data-entity-2="UC_Clases" data-source-line="32" data-uid="lnk25" id="link_Trainer_UC_Clases"><path d="M152.19,562.7 C177.82,613.02 229.35,700.1 299,748 C318.41,761.35 336.9139,768.2699 359.0839,773.3899" fill="none" id="Trainer-to-UC_Clases" style="stroke:#181818;stroke-width:1;"/><polygon fill="#181818" points="364.93,774.74,357.0609,768.8174,360.0582,773.6149,355.2607,776.6122,364.93,774.74" style="stroke:#181818;stroke-width:1;"/></g><!--link Trainer to UC_Horario--><g class="link" data-entity-1="Trainer" data-entity-2="UC_Horario" data-source-line="33" data-uid="lnk26" id="link_Trainer_UC_Horario"><path d="M144.83,562.7 C164.58,625.94 212.6,750.99 299,817 C321.04,833.84 344.9876,841.0021 370.2276,844.8221" fill="none" id="Trainer-to-UC_Horario" style="stroke:#181818;stroke-width:1;"/><polygon fill="#181818" points="376.16,845.72,367.8599,840.4183,371.2163,844.9718,366.6628,848.3282,376.16,845.72" style="stroke:#181818;stroke-width:1;"/></g><!--link Trainer to UC_Perfil--><g class="link" data-entity-1="Trainer" data-entity-2="UC_Perfil" data-source-line="34" data-uid="lnk27" id="link_Trainer_UC_Perfil"><path d="M140.57,562.65 C155.18,636.27 197.43,796.77 299,881 C320.09,898.49 343.5237,905.7281 368.7137,909.4281" fill="none" id="Trainer-to-UC_Perfil" style="stroke:#181818;stroke-width:1;"/><polygon fill="#181818" points="374.65,910.3,366.3268,905.0345,369.7031,909.5734,365.1642,912.9496,374.65,910.3" style="stroke:#181818;stroke-width:1;"/></g><!--link UC_Dash to UC_Login--><g class="link" data-entity-1="UC_Dash" data-entity-2="UC_Login" data-source-line="42" data-uid="lnk31" id="link_UC_Dash_UC_Login"><path d="M427,72.12 C427,86.53 427,102.07 427,116.33" fill="none" id="UC_Dash-to-UC_Login" style="stroke:#181818;stroke-width:1;stroke-dasharray:7,7;"/><polygon fill="#181818" points="427,122.33,431,113.33,427,117.33,423,113.33,427,122.33" style="stroke:#181818;stroke-width:1;"/><text fill="#000000" font-family="'Arial'" font-size="13" lengthAdjust="spacing" textLength="55.6563" x="388.5" y="102.4438">&#171;include&#187;</text></g><!--link UC_Ficha to UC_Clientes--><g class="link" data-entity-1="UC_Ficha" data-entity-2="UC_Clientes" data-source-line="43" data-uid="lnk32" id="link_UC_Ficha_UC_Clientes"><path d="M427,221.79 C427,236.15 427,250.45 427,266.04" fill="none" id="UC_Ficha-to-UC_Clientes" style="stroke:#181818;stroke-width:1;stroke-dasharray:7,7;"/><polygon fill="#181818" points="427,272.04,431,263.04,427,267.04,423,263.04,427,272.04" style="stroke:#181818;stroke-width:1;"/><text fill="#000000" font-family="'Arial'" font-size="13" lengthAdjust="spacing" textLength="55.6563" x="388.5" y="252.1938">&#171;include&#187;</text></g><!--link UC_Asignar to UC_Clientes--><g class="link" data-entity-1="UC_Asignar" data-entity-2="UC_Clientes" data-source-line="44" data-uid="lnk33" id="link_UC_Asignar_UC_Clientes"><path d="M427,368.28 C427,353.45 427,339.13 427,323.64" fill="none" id="UC_Asignar-to-UC_Clientes" style="stroke:#181818;stroke-width:1;stroke-dasharray:7,7;"/><polygon fill="#181818" points="427,317.64,423,326.64,427,322.64,431,326.64,427,317.64" style="stroke:#181818;stroke-width:1;"/><text fill="#000000" font-family="'Arial'" font-size="13" lengthAdjust="spacing" textLength="55.6563" x="388.5" y="348.1938">&#171;include&#187;</text></g><!--link UC_CrearR to UC_Buscar--><g class="link" data-entity-1="UC_CrearR" data-entity-2="UC_Buscar" data-source-line="45" data-uid="lnk34" id="link_UC_CrearR_UC_Buscar"><path d="M427,487.75 C427,502.08 427,517.76 427,532.38" fill="none" id="UC_CrearR-to-UC_Buscar" style="stroke:#181818;stroke-width:1;stroke-dasharray:7,7;"/><polygon fill="#181818" points="427,538.38,431,529.38,427,533.38,423,529.38,427,538.38" style="stroke:#181818;stroke-width:1;"/><text fill="#000000" font-family="'Arial'" font-size="13" lengthAdjust="spacing" textLength="55.6563" x="388.5" y="518.1938">&#171;include&#187;</text></g><!--link UC_EditarR to UC_Buscar--><g class="link" data-entity-1="UC_EditarR" data-entity-2="UC_Buscar" data-source-line="46" data-uid="lnk35" id="link_UC_EditarR_UC_Buscar"><path d="M427,620.14 C427,605.8 427,590.17 427,575.59" fill="none" id="UC_EditarR-to-UC_Buscar" style="stroke:#181818;stroke-width:1;stroke-dasharray:7,7;"/><polygon fill="#181818" points="427,569.59,423,578.59,427,574.59,431,578.59,427,569.59" style="stroke:#181818;stroke-width:1;"/><text fill="#000000" font-family="'Arial'" font-size="13" lengthAdjust="spacing" textLength="55.6563" x="388.5" y="600.1938">&#171;include&#187;</text></g><!--link UC_Asignar to UC_CrearR--><g class="link" data-entity-1="UC_Asignar" data-entity-2="UC_CrearR" data-source-line="47" data-uid="lnk36" id="link_UC_Asignar_UC_CrearR"><path d="M427,407.73 C427,423.14 427,438.21 427,452.19" fill="none" id="UC_Asignar-to-UC_CrearR" style="stroke:#181818;stroke-width:1;stroke-dasharray:7,7;"/><polygon fill="#181818" points="427,458.19,431,449.19,427,453.19,423,449.19,427,458.19" style="stroke:#181818;stroke-width:1;"/><text fill="#000000" font-family="'Arial'" font-size="13" lengthAdjust="spacing" textLength="55.6563" x="388.5" y="438.1938">&#171;include&#187;</text></g><!--SRC=[XPFDZX914CVl_HILkQY943teOREG81zn4yCQGA-cc2wWjUaYtJtHZV6HF1WVWHVRdfbk69fDzWJy-rSV_Alg1Gm60rYkHfExU-Z161qxa0ILunkOpbUBwNmqkL_KbD2qyU0PhDhkF4XbgVIAZN0_b3cWnJrWwTak_OCcm9_aU4-THqaRhBIViV5pt1CK8wjG5q8qKL1CZRTaKB8j01siB2f3LeYw39fjo5cqVHRmMq3ea4fqGRmpgbHemP5Jn_-c2Vuo_lQ9jyfqkQzaGQBRhHcjJDGa25repCQ59aEwKYiodbm0rRPkowMOSNp9aszKkSFQl1YQ-5cjNnIn50hOoYk3fwIrjkXIKwdy5TQA5zoewI-1W7dv-DuD-L2vCaJGTx9bC8yJskeNoO__C4pwZ8Ry6c6jrbgn3z2fYfJJNxaZfGvVwttI88z_p_-raNDunnRjkPUFxSyd73cGtIYTkC_DB_57YBWnqEiDpmkGYSsyC-qqpqnlvvR3xPmoDOqbavFrcHnjpk76mQlU6gioDNcJoT4AOS9amg4UW3UdCm9OjlS1ghaN6VQ43LZMdJFlrnXh1WuU8pXUMm9NkIUE8P0FyQcPySl5hFVctMi87s_Vl-eBCXBgFeI8haF_F1MuWTjRPKfTIHeEHV8w8caUrrHQzUUuTaWHYyj-1SMPFKDb9Tl4bzGZ]--></g></svg>